# xmcd
#
# Track frame offsets:
#	150
#	22540
#	45016
#	70768
#	97288
#	120003
#	136502
#	151081
#	174643
#	187433
#	204945
#	220874
#	238182
#	253766
#	269815
#	291561
#
# Disc length: 4121 seconds
#
# Revision: 1
# Processed by: cddbd v1.5.1PL2 Copyright (c) Steve Scherf et al.
# Submitted via: audiograbber 1.83.01
#
DISCID=e2101710
DTITLE=Compils - Telesul
DYEAR=2005
DGENRE=Rock
TTITLE0=Madona - Like a prayer (remix)
TTITLE1=The Shapershifters - Lola's theme
TTITLE2=Global Deejays - The sound of San Francisco
TTITLE3=Vanguarde - Gimme, gimme, gimme
TTITLE4=Jean Roch - Can you feel it
TTITLE5=David Guetta - The word is mine
TTITLE6=Michaek Gray - The weekend
TTITLE7=SMS - Rockin' generation
TTITLE8=Eric Prydz - Call on me
TTITLE9=Eamon - Fuck it (remix)
TTITLE10=Tom Novy - Your body
TTITLE11=Gadjo - So many times
TTITLE12=Armand van Helden - My, my, my
TTITLE13=The Nightcrawlers - Push the feeling on
TTITLE14=The Royal Gigolo's - California dreaming
TTITLE15=Bob Sinclair - Love generation
EXTD=
EXTT0=
EXTT1=
EXTT2=
EXTT3=
EXTT4=
EXTT5=
EXTT6=
EXTT7=
EXTT8=
EXTT9=
EXTT10=
EXTT11=
EXTT12=
EXTT13=
EXTT14=
EXTT15=
PLAYORDER=
